<svg width="458" height="152" viewBox="0 0 458 152" fill="none" xmlns="http://www.w3.org/2000/svg">
<path d="M17.1904 148.191L20.1768 148.372C34.7441 149.255 47.0429 137.679 47.0429 123.085V76.37M47.0429 76.37V62.5299C47.0429 55.0726 53.0882 49.0273 60.5455 49.0273H91.7701C99.3205 49.0273 105.441 55.1482 105.441 62.6987C105.441 70.2491 99.3206 76.37 91.7701 76.37H47.0429Z" stroke="#D7E3F0" stroke-width="6.33333" stroke-linecap="round"/>
<path d="M16.8779 118.823V38.4827C16.8779 29.1611 24.4345 21.6045 33.7561 21.6045H110.045" stroke="#D7E3F0" stroke-width="6.33333"/>
<circle cx="16.8782" cy="118.823" r="13.7115" fill="#43A79D" stroke="#D7E3F0" stroke-width="6.33333"/>
<path d="M126.458 21.2666C126.458 21.3158 126.445 21.3537 126.433 21.376C126.425 21.3898 126.409 21.4151 126.354 21.4473L104.58 34.0176C104.524 34.05 104.494 34.0511 104.479 34.0508C104.453 34.0503 104.414 34.0422 104.371 34.0176C104.329 33.993 104.302 33.9632 104.289 33.9414C104.281 33.9277 104.267 33.9012 104.267 33.8369V8.69629C104.267 8.63145 104.281 8.6044 104.289 8.59082C104.302 8.56898 104.329 8.53919 104.371 8.51465C104.414 8.49002 104.453 8.48288 104.479 8.48242C104.494 8.48215 104.524 8.48243 104.58 8.51465L126.354 21.0859C126.409 21.1182 126.425 21.1434 126.433 21.1572C126.445 21.1796 126.458 21.2173 126.458 21.2666Z" fill="#43A79D" stroke="#D7E3F0" stroke-width="6.33333"/>
<path d="M152.482 59V11.0879H180.971V15.1719H156.998V33.2012H179.045V37.2188H156.998V59H152.482ZM209.573 59.7637C205.102 59.7637 201.239 58.7565 197.985 56.7422C194.731 54.7279 192.219 51.8724 190.448 48.1758C188.677 44.4792 187.792 40.1074 187.792 35.0605V34.9941C187.792 29.9473 188.677 25.5866 190.448 21.9121C192.241 18.2155 194.765 15.36 198.019 13.3457C201.272 11.3314 205.113 10.3242 209.54 10.3242C214.011 10.3242 217.863 11.3314 221.095 13.3457C224.349 15.36 226.861 18.2155 228.632 21.9121C230.403 25.5866 231.288 29.9473 231.288 34.9941V35.0605C231.288 40.1074 230.403 44.4792 228.632 48.1758C226.861 51.8724 224.36 54.7279 221.128 56.7422C217.896 58.7565 214.045 59.7637 209.573 59.7637ZM209.573 55.5801C213.093 55.5801 216.125 54.7389 218.671 53.0566C221.239 51.3522 223.22 48.9616 224.614 45.8848C226.009 42.8079 226.706 39.1999 226.706 35.0605V34.9941C226.706 30.8105 225.998 27.1914 224.581 24.1367C223.186 21.0599 221.205 18.6914 218.638 17.0312C216.07 15.349 213.037 14.5078 209.54 14.5078C206.065 14.5078 203.032 15.349 200.442 17.0312C197.875 18.6914 195.882 21.0488 194.466 24.1035C193.071 27.1582 192.374 30.7884 192.374 34.9941V35.0605C192.374 39.222 193.071 42.8411 194.466 45.918C195.882 48.9948 197.875 51.3743 200.442 53.0566C203.032 54.7389 206.076 55.5801 209.573 55.5801ZM258.894 59.7637C255.065 59.7637 251.756 59.0332 248.967 57.5723C246.2 56.1113 244.075 54.0749 242.592 51.4629C241.109 48.8288 240.367 45.763 240.367 42.2656V11.0879H244.883V42C244.883 44.7227 245.436 47.1022 246.543 49.1387C247.672 51.153 249.277 52.7357 251.357 53.8867C253.46 55.0156 255.973 55.5801 258.894 55.5801C261.838 55.5801 264.351 55.0156 266.432 53.8867C268.534 52.7357 270.139 51.153 271.246 49.1387C272.353 47.1022 272.906 44.7227 272.906 42V11.0879H277.422V42.2656C277.422 45.763 276.68 48.8288 275.197 51.4629C273.714 54.0749 271.589 56.1113 268.822 57.5723C266.055 59.0332 262.746 59.7637 258.894 59.7637ZM288.427 59V11.0879H292.876L324.983 57.0078L319.14 51.3965H321.231V11.0879H325.714V59H321.231L289.124 13.1133L295.001 18.6914H292.876V59H288.427ZM336.685 59V11.0879H352.224C357.006 11.0879 361.079 12.0286 364.443 13.9102C367.83 15.7917 370.42 18.5143 372.213 22.0781C374.028 25.6419 374.935 29.9473 374.935 34.9941V35.0605C374.935 40.1074 374.039 44.4238 372.246 48.0098C370.453 51.5736 367.863 54.2962 364.476 56.1777C361.09 58.0592 357.006 59 352.224 59H336.685ZM341.201 54.916H351.926C355.888 54.916 359.23 54.1523 361.953 52.625C364.676 51.0755 366.745 48.8288 368.162 45.8848C369.601 42.9186 370.32 39.3216 370.32 35.0938V35.0273C370.32 30.7773 369.601 27.1693 368.162 24.2031C366.745 21.237 364.676 18.9902 361.953 17.4629C359.23 15.9355 355.888 15.1719 351.926 15.1719H341.201V54.916ZM384.014 59V11.0879H412.934V15.1719H388.53V32.4375H411.706V36.4883H388.53V54.916H412.934V59H384.014ZM422.711 59V11.0879H439.611C442.732 11.0879 445.433 11.6634 447.713 12.8145C450.015 13.9655 451.786 15.5924 453.025 17.6953C454.287 19.776 454.918 22.2441 454.918 25.0996V25.166C454.918 28.5306 453.999 31.4082 452.162 33.7988C450.347 36.1895 447.845 37.8053 444.658 38.6465L456.279 59H451L439.976 39.3438C439.844 39.3659 439.677 39.377 439.478 39.377C439.301 39.377 439.135 39.377 438.98 39.377H427.226V59H422.711ZM427.226 35.3594H439.246C442.721 35.3594 445.422 34.474 447.347 32.7031C449.295 30.9323 450.269 28.4531 450.269 25.2656V25.1992C450.269 22.0339 449.273 19.5658 447.281 17.7949C445.289 16.0241 442.544 15.1387 439.047 15.1387H427.226V35.3594Z" fill="#D7E3F0"/>
<path d="M179.958 140.038C175.476 140.038 171.45 139.332 167.88 137.921C164.339 136.51 161.323 134.462 158.833 131.778C156.342 129.067 154.433 125.788 153.105 121.942C151.777 118.096 151.113 113.738 151.113 108.868V108.827C151.113 102.407 152.275 96.915 154.599 92.3496C156.923 87.7565 160.216 84.2287 164.477 81.7661C168.766 79.3035 173.829 78.0723 179.667 78.0723C184.482 78.0723 188.729 78.93 192.409 80.6455C196.089 82.3333 199.077 84.6576 201.374 87.6182C203.698 90.5788 205.192 93.9406 205.856 97.7036L205.981 98.2847H193.405L193.239 97.8696C192.243 94.9644 190.583 92.7093 188.259 91.1045C185.935 89.4997 183.085 88.6973 179.709 88.6973C176.416 88.6973 173.58 89.4858 171.201 91.063C168.849 92.6125 167.036 94.8813 165.764 97.8696C164.519 100.858 163.896 104.469 163.896 108.702V108.744C163.896 111.981 164.27 114.886 165.017 117.459C165.764 120.005 166.843 122.163 168.254 123.934C169.693 125.705 171.408 127.061 173.4 128.001C175.42 128.942 177.675 129.413 180.166 129.413C182.877 129.413 185.271 128.915 187.346 127.918C189.449 126.895 191.095 125.47 192.285 123.644C193.502 121.79 194.166 119.632 194.277 117.169L194.318 116.297H180.622V106.959H206.521V113.849C206.521 117.916 205.912 121.568 204.694 124.806C203.505 128.043 201.761 130.796 199.465 133.065C197.196 135.334 194.415 137.063 191.123 138.253C187.83 139.443 184.108 140.038 179.958 140.038ZM223.68 120.116V110.321H238.372C241.969 110.321 244.764 109.408 246.756 107.582C248.776 105.728 249.786 103.099 249.786 99.6958V99.6128C249.786 96.2095 248.776 93.5947 246.756 91.7686C244.764 89.9424 241.969 89.0293 238.372 89.0293H223.68V79.1099H241.444C245.649 79.1099 249.329 79.9676 252.484 81.6831C255.638 83.3709 258.087 85.7505 259.83 88.8218C261.601 91.8931 262.486 95.4762 262.486 99.5713V99.6543C262.486 103.777 261.601 107.374 259.83 110.445C258.087 113.517 255.638 115.896 252.484 117.584C249.329 119.272 245.649 120.116 241.444 120.116H223.68ZM217.371 139V79.1099H229.905V139H217.371ZM294.338 140.038C289.606 140.038 285.47 139.346 281.928 137.962C278.414 136.551 275.647 134.545 273.627 131.944C271.607 129.316 270.473 126.161 270.224 122.481L270.183 121.817H282.011L282.094 122.274C282.371 123.823 283.063 125.165 284.169 126.3C285.304 127.407 286.77 128.278 288.569 128.915C290.367 129.523 292.401 129.828 294.67 129.828C296.994 129.828 298.986 129.523 300.646 128.915C302.334 128.278 303.635 127.393 304.548 126.258C305.489 125.096 305.959 123.754 305.959 122.232V122.191C305.959 120.171 305.156 118.594 303.552 117.459C301.975 116.297 299.318 115.329 295.583 114.554L289.274 113.309C283.381 112.119 278.94 110.113 275.952 107.291C272.963 104.469 271.469 100.803 271.469 96.2925V96.251C271.469 92.5986 272.451 89.4167 274.416 86.7051C276.38 83.9658 279.078 81.8491 282.509 80.355C285.94 78.8332 289.869 78.0723 294.296 78.0723C298.917 78.0723 302.901 78.7917 306.249 80.2305C309.625 81.6693 312.254 83.703 314.135 86.3315C316.017 88.9601 317.054 92.0176 317.248 95.5039L317.289 96.2925H305.461L305.419 95.7944C305.198 94.2173 304.603 92.8753 303.635 91.7686C302.666 90.6341 301.38 89.7625 299.775 89.1538C298.198 88.5451 296.371 88.2407 294.296 88.2407C292.166 88.2407 290.326 88.5589 288.776 89.1953C287.227 89.804 286.037 90.6479 285.207 91.7271C284.405 92.8062 284.003 94.0651 284.003 95.5039V95.5454C284.003 97.4269 284.806 98.9487 286.411 100.111C288.015 101.273 290.533 102.2 293.964 102.892L300.314 104.178C304.492 105.008 307.923 106.157 310.607 107.623C313.291 109.09 315.27 110.943 316.542 113.185C317.843 115.398 318.493 118.068 318.493 121.195V121.236C318.493 125.082 317.525 128.417 315.588 131.239C313.679 134.033 310.912 136.205 307.287 137.755C303.69 139.277 299.374 140.038 294.338 140.038Z" fill="#43A79D"/>
</svg>
