<svg width="61" height="71" viewBox="0 0 61 71" fill="none" xmlns="http://www.w3.org/2000/svg">
<g filter="url(#filter0_f_14_125)">
<ellipse cx="30.5" cy="64" rx="8.5" ry="3" fill="black" fill-opacity="0.2"/>
</g>
<g filter="url(#filter1_d_14_125)">
<path fill-rule="evenodd" clip-rule="evenodd" d="M30.5 4C44.5833 4 56 15.4167 56 29.5C56 37.7068 52.1232 45.008 46.101 49.6723C42.3514 52.5764 38.3218 55.28 35.5214 59.1078L31.9521 63.9865C31.7883 64.2113 31.5709 64.3948 31.3181 64.5215C31.0653 64.6481 30.7846 64.7143 30.4997 64.7143C30.2149 64.7143 29.9342 64.6481 29.6814 64.5215C29.4286 64.3948 29.2111 64.2113 29.0473 63.9865L25.4776 59.1071C22.6774 55.2796 18.6481 52.5761 14.8987 49.6721C8.87671 45.0078 5 37.7066 5 29.5C5 15.4167 16.4167 4 30.5 4Z" fill="white"/>
</g>
<circle cx="30.5" cy="29.5" r="21.5" fill="#D9D9D9"/>
<defs>
<filter id="filter0_f_14_125" x="20" y="59" width="21" height="10" filterUnits="userSpaceOnUse" color-interpolation-filters="sRGB">
<feFlood flood-opacity="0" result="BackgroundImageFix"/>
<feBlend mode="normal" in="SourceGraphic" in2="BackgroundImageFix" result="shape"/>
<feGaussianBlur stdDeviation="1" result="effect1_foregroundBlur_14_125"/>
</filter>
<filter id="filter1_d_14_125" x="0" y="0" width="61" height="70.7143" filterUnits="userSpaceOnUse" color-interpolation-filters="sRGB">
<feFlood flood-opacity="0" result="BackgroundImageFix"/>
<feColorMatrix in="SourceAlpha" type="matrix" values="0 0 0 0 0 0 0 0 0 0 0 0 0 0 0 0 0 0 127 0" result="hardAlpha"/>
<feOffset dy="1"/>
<feGaussianBlur stdDeviation="2.5"/>
<feComposite in2="hardAlpha" operator="out"/>
<feColorMatrix type="matrix" values="0 0 0 0 0 0 0 0 0 0 0 0 0 0 0 0 0 0 0.1 0"/>
<feBlend mode="normal" in2="BackgroundImageFix" result="effect1_dropShadow_14_125"/>
<feBlend mode="normal" in="SourceGraphic" in2="effect1_dropShadow_14_125" result="shape"/>
</filter>
</defs>
</svg>
